<svg width="28" height="30" viewBox="0 0 28 30" fill="none" xmlns="http://www.w3.org/2000/svg">
<path opacity="0.5" d="M17.5095 14.0252C21.3159 14.0252 24.3611 16.8303 24.3611 20.3366C24.3611 21.5708 23.9804 22.7349 23.3105 23.7027L28 28.0505L25.8836 30L21.1332 25.6943C20.0827 26.2973 18.8342 26.648 17.5095 26.648C13.7031 26.648 10.658 23.8429 10.658 20.3366C10.658 16.8303 13.7031 14.0252 17.5095 14.0252ZM17.5095 16.8303C16.5 16.8303 15.5318 17.1997 14.818 17.8573C14.1041 18.5148 13.7031 19.4067 13.7031 20.3366C13.7031 21.2665 14.1041 22.1584 14.818 22.8159C15.5318 23.4735 16.5 23.8429 17.5095 23.8429C18.519 23.8429 19.4872 23.4735 20.2011 22.8159C20.9149 22.1584 21.3159 21.2665 21.3159 20.3366C21.3159 19.4067 20.9149 18.5148 20.2011 17.8573C19.4872 17.1997 18.519 16.8303 17.5095 16.8303ZM13.7031 2.80505V14.0252L9.89668 10.8696L6.09027 14.0252V2.80505H3.04513V25.2454H9.1354C9.95759 26.3815 11.0082 27.3492 12.2262 28.0505H3.04513C2.23751 28.0505 1.46297 27.755 0.891899 27.2289C0.320825 26.7029 0 25.9894 0 25.2454V2.80505C0 2.0611 0.320825 1.34763 0.891899 0.82158C1.46297 0.295531 2.23751 0 3.04513 0H21.3159C22.1236 0 22.8981 0.295531 23.4692 0.82158C24.0402 1.34763 24.3611 2.0611 24.3611 2.80505V13.7588C23.478 12.9874 22.4579 12.3562 21.3159 11.9215V2.80505H13.7031Z" fill="black"/>
</svg>