<svg width="35" height="35" viewBox="0 0 35 35" fill="none" xmlns="http://www.w3.org/2000/svg">
<path d="M17.5 9.47921C17.5 8.4259 17.2926 7.3829 16.8895 6.40977C16.4864 5.43664 15.8956 4.55242 15.1508 3.80762C14.406 3.06282 13.5218 2.47201 12.5486 2.06892C11.5755 1.66584 10.5325 1.45837 9.47921 1.45837C8.4259 1.45837 7.3829 1.66584 6.40977 2.06892C5.43664 2.47201 4.55242 3.06282 3.80762 3.80762C3.06282 4.55242 2.47201 5.43664 2.06892 6.40977C1.66584 7.3829 1.45837 8.4259 1.45837 9.47921C1.45837 11.6065 2.30342 13.6466 3.80762 15.1508C5.31182 16.655 7.35195 17.5 9.47921 17.5C11.6065 17.5 13.6466 16.655 15.1508 15.1508C16.655 13.6466 17.5 11.6065 17.5 9.47921ZM10.2084 10.2084L10.2098 13.86C10.2098 14.0534 10.133 14.2389 9.99626 14.3756C9.85952 14.5124 9.67405 14.5892 9.48067 14.5892C9.28728 14.5892 9.10181 14.5124 8.96507 14.3756C8.82832 14.2389 8.7515 14.0534 8.7515 13.86V10.2084H5.09837C4.90499 10.2084 4.71952 10.1316 4.58278 9.99481C4.44603 9.85806 4.36921 9.67259 4.36921 9.47921C4.36921 9.28582 4.44603 9.10035 4.58278 8.96361C4.71952 8.82686 4.90499 8.75004 5.09837 8.75004H8.75004V5.10421C8.75004 4.91082 8.82686 4.72535 8.96361 4.58861C9.10035 4.45186 9.28582 4.37504 9.47921 4.37504C9.67259 4.37504 9.85806 4.45186 9.99481 4.58861C10.1316 4.72535 10.2084 4.91082 10.2084 5.10421V8.75004H13.8498C14.0432 8.75004 14.2287 8.82686 14.3654 8.96361C14.5022 9.10035 14.579 9.28582 14.579 9.47921C14.579 9.67259 14.5022 9.85806 14.3654 9.99481C14.2287 10.1316 14.0432 10.2084 13.8498 10.2084H10.2084ZM25.8855 6.56254H18.5019C18.2521 5.7922 17.9046 5.05705 17.468 4.37504H25.8855C27.1425 4.37504 28.348 4.87439 29.2368 5.76323C30.1257 6.65208 30.625 7.85761 30.625 9.11462V25.8855C30.625 27.1425 30.1257 28.348 29.2368 29.2368C28.348 30.1257 27.1425 30.625 25.8855 30.625H9.11462C7.85761 30.625 6.65208 30.1257 5.76323 29.2368C4.87439 28.348 4.37504 27.1425 4.37504 25.8855V17.468C5.05025 17.9011 5.78525 18.2496 6.56254 18.5019V25.8855C6.56351 26.1898 6.61358 26.4785 6.71275 26.7517L15.2046 18.4377C15.7867 17.8679 16.56 17.5349 17.3741 17.5036C18.1881 17.4724 18.9847 17.745 19.6088 18.2686L19.7955 18.4377L28.2859 26.7532C28.385 26.4809 28.4356 26.1917 28.4375 25.8855V9.11462C28.4375 8.43777 28.1687 7.78864 27.6901 7.31003C27.2114 6.83142 26.5623 6.56254 25.8855 6.56254ZM26.7313 28.2932L18.2657 20.0011C18.081 19.8201 17.8381 19.7104 17.5802 19.6914C17.3223 19.6724 17.0661 19.7455 16.8569 19.8975L16.7344 19.9996L8.26587 28.2932C8.53226 28.3875 8.81518 28.4356 9.11462 28.4375H25.8855C26.1815 28.4375 26.4673 28.3865 26.7313 28.2932ZM22.244 9.47921C23.115 9.47921 23.9504 9.82522 24.5663 10.4411C25.1822 11.057 25.5282 11.8924 25.5282 12.7634C25.5282 13.6344 25.1822 14.4697 24.5663 15.0856C23.9504 15.7015 23.115 16.0475 22.244 16.0475C21.373 16.0475 20.5376 15.7015 19.9217 15.0856C19.3058 14.4697 18.9598 13.6344 18.9598 12.7634C18.9598 11.8924 19.3058 11.057 19.9217 10.4411C20.5376 9.82522 21.373 9.47921 22.244 9.47921ZM22.244 11.6667C21.9531 11.6667 21.6742 11.7822 21.4685 11.9879C21.2629 12.1936 21.1473 12.4725 21.1473 12.7634C21.1473 13.0542 21.2629 13.3332 21.4685 13.5388C21.6742 13.7445 21.9531 13.86 22.244 13.86C22.5349 13.86 22.8138 13.7445 23.0195 13.5388C23.2251 13.3332 23.3407 13.0542 23.3407 12.7634C23.3407 12.4725 23.2251 12.1936 23.0195 11.9879C22.8138 11.7822 22.5349 11.6667 22.244 11.6667Z" fill="black"/>
</svg>